<?xml version="1.0" encoding="UTF-8" standalone="no"?>
<!DOCTYPE svg PUBLIC "-//W3C//DTD SVG 1.1//EN" "http://www.w3.org/Graphics/SVG/1.1/DTD/svg11.dtd">
<svg width="100%" height="100%" viewBox="0 0 1388 621" version="1.1" xmlns="http://www.w3.org/2000/svg" xmlns:xlink="http://www.w3.org/1999/xlink" xml:space="preserve" xmlns:serif="http://www.serif.com/" style="fill-rule:evenodd;clip-rule:evenodd;stroke-linejoin:round;stroke-miterlimit:2;">
    <g transform="matrix(4.16667,0,0,4.16667,0,0)">
        <g>
            <path d="M95.172,87.251L102.113,87.251L102.113,39.327L95.172,39.327L95.172,87.251ZM94.796,30.886L94.796,23.196L102.488,23.196L102.488,30.886" style="fill:rgb(250,166,57);fill-rule:nonzero;"/>
            <path d="M119.545,62.679C119.545,66.712 119.981,70.089 120.856,72.808C121.729,75.528 122.931,77.483 124.46,78.67C125.989,79.859 127.456,80.656 128.86,81.062C130.265,81.468 131.872,81.671 133.682,81.671C142.171,81.671 146.415,78.858 146.415,73.23L146.415,47.298C142.514,45.704 138.55,44.907 134.524,44.907C129.281,44.907 125.474,46.314 123.102,49.127C120.73,51.941 119.545,56.459 119.545,62.679ZM112.605,62.679C112.605,57.928 113.246,53.887 114.529,50.558C115.812,47.228 117.588,44.735 119.857,43.078C122.125,41.422 124.433,40.257 126.78,39.585C129.126,38.913 131.708,38.576 134.524,38.576C138.738,38.576 142.701,39.186 146.415,40.406L146.415,21.085L153.355,21.085L153.355,72.949C153.355,74.231 153.166,75.544 152.791,76.888C152.416,78.233 151.634,79.835 150.443,81.695C149.253,83.555 147.219,85.071 144.34,86.243C141.461,87.415 137.907,88.001 133.682,88.001C131.897,88.001 130.153,87.845 128.448,87.533C126.742,87.22 124.895,86.517 122.909,85.422C120.921,84.328 119.208,82.907 117.769,81.156C116.328,79.405 115.108,76.943 114.107,73.77C113.105,70.597 112.605,66.9 112.605,62.679Z" style="fill:rgb(250,166,57);fill-rule:nonzero;"/>
            <path d="M163.657,67.088L163.657,39.327L170.596,39.327L170.596,67.4C170.596,72.267 171.658,75.83 173.78,78.092C175.901,80.353 179.225,81.484 183.75,81.484C188.213,81.484 191.52,80.353 193.674,78.092C195.827,75.83 196.904,72.267 196.904,67.4L196.904,39.327L203.844,39.327L203.844,67.088C203.844,73.746 202.093,78.897 198.594,82.538C195.095,86.181 190.148,88.001 183.75,88.001C177.351,88.001 172.404,86.181 168.905,82.538C165.406,78.897 163.657,73.746 163.657,67.088Z" style="fill:rgb(250,166,57);fill-rule:nonzero;"/>
            <path d="M215.221,67.088L215.221,39.327L222.161,39.327L222.161,67.4C222.161,72.267 223.222,75.83 225.343,78.092C227.465,80.353 230.79,81.484 235.314,81.484C239.777,81.484 243.084,80.353 245.239,78.092C247.391,75.83 248.468,72.267 248.468,67.4L248.468,39.327L255.408,39.327L255.408,67.088C255.408,73.746 253.658,78.897 250.159,82.538C246.66,86.181 241.711,88.001 235.314,88.001C228.916,88.001 223.968,86.181 220.469,82.538C216.969,78.897 215.221,73.746 215.221,67.088Z" style="fill:rgb(250,166,57);fill-rule:nonzero;"/>
            <path d="M265.003,87.251L265.003,43.078C271.17,40.015 277.569,38.483 284.206,38.483C289.451,38.483 293.666,39.796 296.852,42.422C303.015,39.796 308.944,38.483 314.638,38.483C320.46,38.483 324.975,40.015 328.184,43.078C331.393,46.142 332.998,50.457 332.998,56.021L332.998,87.251L326.058,87.251L326.058,56.021C326.058,54.677 325.932,53.481 325.683,52.433C325.433,51.387 324.926,50.269 324.163,49.081C323.397,47.893 322.165,46.978 320.465,46.337C318.764,45.697 316.667,45.376 314.17,45.376C310.141,45.376 305.723,46.173 300.913,47.767C301.951,50.081 302.47,52.832 302.47,56.021L302.47,87.251L295.531,87.251L295.531,56.021C295.531,54.614 295.398,53.387 295.132,52.34C294.868,51.292 294.352,50.191 293.587,49.033C292.824,47.878 291.566,46.978 289.82,46.337C288.073,45.697 285.92,45.376 283.362,45.376C279.462,45.376 275.656,45.955 271.943,47.111L271.943,87.251" style="fill:rgb(250,166,57);fill-rule:nonzero;"/>
            <path d="M58.072,45.493C53.649,45.493 49.263,46.381 44.911,48.154L44.911,77.011C44.945,83.273 49.663,86.404 59.064,86.404C61.048,86.404 62.841,86.178 64.442,85.725C66.044,85.273 67.707,84.386 69.43,83.065C71.153,81.742 72.494,79.568 73.451,76.541C74.409,73.515 74.888,69.757 74.888,65.269C74.888,58.347 73.565,53.321 70.918,50.19C68.273,47.059 63.99,45.493 58.072,45.493Z" style="fill:rgb(250,166,57);fill-rule:nonzero;"/>
            <path d="M42.181,8.983L39.504,8.983L39.504,3.907L42.181,3.907L42.181,8.983ZM9.147,45.04L4.071,45.04L4.071,42.364L9.147,42.364L9.147,45.04ZM71.332,0.182L10.708,0.182C4.794,0.182 0,4.977 0,10.891L0,76.602C0,82.516 4.794,87.31 10.708,87.31L41.136,87.31C40.321,86.378 39.61,85.353 39.028,84.212C38.137,82.469 37.605,81.032 37.43,79.899C37.254,78.766 37.168,77.658 37.168,76.578L37.168,18.739L44.911,18.739L44.911,40.397C49.192,38.947 53.58,38.221 58.072,38.221C60.515,38.221 62.81,38.431 64.958,38.85C67.105,39.269 69.286,40.091 71.503,41.314C73.72,42.537 75.63,44.11 77.237,46.032C78.842,47.954 80.143,50.566 81.138,53.868C81.52,55.136 81.805,56.499 82.041,57.914L82.041,10.891C82.041,4.977 77.246,0.182 71.332,0.182Z" style="fill:rgb(250,166,57);fill-rule:nonzero;"/>
        </g>
        <path d="M7.886,120.903C7.363,120.903 6.834,120.916 6.3,120.939C5.765,120.963 5.367,120.999 5.105,121.046L5.105,137.768C5.2,137.793 5.36,137.81 5.586,137.822C5.812,137.835 6.056,137.847 6.317,137.857C6.579,137.87 6.828,137.882 7.066,137.893C7.304,137.906 7.482,137.911 7.601,137.911C8.98,137.911 10.127,137.668 11.042,137.18C11.957,136.693 12.682,136.046 13.217,135.237C13.752,134.43 14.126,133.496 14.34,132.438C14.554,131.381 14.661,130.293 14.661,129.176C14.661,128.201 14.565,127.221 14.376,126.234C14.185,125.248 13.835,124.362 13.324,123.577C12.813,122.793 12.117,122.151 11.238,121.652C10.358,121.153 9.241,120.903 7.886,120.903ZM0.22,116.91C0.72,116.839 1.284,116.779 1.914,116.731C2.543,116.684 3.191,116.648 3.857,116.625C4.522,116.601 5.17,116.584 5.8,116.571C6.43,116.559 6.995,116.554 7.494,116.554C9.705,116.554 11.595,116.862 13.164,117.48C14.732,118.098 16.003,118.967 16.979,120.083C17.953,121.201 18.666,122.532 19.118,124.077C19.569,125.622 19.795,127.321 19.795,129.176C19.795,130.863 19.582,132.491 19.153,134.06C18.726,135.63 18.013,137.019 17.014,138.232C16.016,139.444 14.702,140.42 13.074,141.156C11.446,141.892 9.431,142.262 7.031,142.262C6.65,142.262 6.145,142.249 5.515,142.225C4.885,142.202 4.231,142.172 3.554,142.137C2.877,142.1 2.229,142.065 1.611,142.029C0.993,141.994 0.529,141.952 0.22,141.905L0.22,116.91Z" style="fill:rgb(250,166,57);fill-rule:nonzero;"/>
        <path d="M30.813,127.25C29.6,127.25 28.703,127.613 28.121,128.339C27.538,129.063 27.188,130.031 27.069,131.244L33.701,131.244C33.795,129.96 33.599,128.973 33.112,128.285C32.625,127.595 31.858,127.25 30.813,127.25ZM37.444,140.336C36.732,140.906 35.763,141.388 34.539,141.78C33.314,142.172 32.013,142.368 30.634,142.368C27.758,142.368 25.654,141.53 24.323,139.854C22.992,138.179 22.327,135.879 22.327,132.955C22.327,129.817 23.075,127.464 24.573,125.895C26.07,124.326 28.174,123.542 30.884,123.542C31.787,123.542 32.667,123.661 33.523,123.898C34.378,124.137 35.139,124.528 35.804,125.075C36.47,125.622 37.004,126.358 37.409,127.286C37.813,128.214 38.015,129.367 38.015,130.744C38.015,131.244 37.985,131.778 37.926,132.348C37.866,132.919 37.777,133.514 37.658,134.132L26.962,134.132C27.033,135.63 27.419,136.759 28.121,137.519C28.821,138.28 29.957,138.66 31.526,138.66C32.5,138.66 33.374,138.512 34.147,138.215C34.919,137.918 35.507,137.614 35.911,137.305L37.444,140.336Z" style="fill:rgb(250,166,57);fill-rule:nonzero;"/>
        <path d="M51.136,128.391C50.399,128.13 49.733,127.999 49.139,127.999C48.307,127.999 47.612,128.219 47.053,128.658C46.495,129.098 46.12,129.663 45.93,130.352L45.93,141.869L41.295,141.869L41.295,124.041L44.897,124.041L45.431,126.394L45.574,126.394C45.978,125.515 46.524,124.838 47.214,124.362C47.903,123.887 48.711,123.649 49.639,123.649C50.256,123.649 50.958,123.78 51.742,124.041L51.136,128.391Z" style="fill:rgb(250,166,57);fill-rule:nonzero;"/>
        <path d="M66.824,129.389C66.824,130.649 66.931,131.808 67.145,132.866C67.359,133.924 67.686,134.833 68.126,135.594C68.566,136.354 69.129,136.948 69.819,137.377C70.508,137.805 71.329,138.018 72.28,138.018C74.015,138.018 75.357,137.341 76.309,135.986C77.259,134.631 77.735,132.432 77.735,129.389C77.735,128.177 77.633,127.049 77.432,126.002C77.23,124.956 76.915,124.041 76.487,123.257C76.059,122.472 75.501,121.86 74.811,121.421C74.122,120.98 73.278,120.761 72.28,120.761C70.544,120.761 69.201,121.456 68.251,122.847C67.299,124.237 66.824,126.418 66.824,129.389ZM61.69,129.389C61.69,125.23 62.605,122.026 64.436,119.78C66.266,117.534 68.88,116.411 72.28,116.411C74.063,116.411 75.619,116.72 76.95,117.338C78.281,117.956 79.387,118.835 80.267,119.976C81.146,121.117 81.8,122.484 82.228,124.077C82.655,125.67 82.869,127.44 82.869,129.389C82.869,133.55 81.948,136.753 80.106,138.999C78.264,141.245 75.655,142.368 72.28,142.368C70.473,142.368 68.904,142.059 67.573,141.441C66.242,140.823 65.142,139.943 64.275,138.803C63.407,137.662 62.76,136.295 62.332,134.702C61.904,133.11 61.69,131.339 61.69,129.389Z" style="fill:rgb(250,166,57);fill-rule:nonzero;"/>
        <path d="M97.167,141.869L97.167,131.743C97.167,130.293 96.959,129.247 96.543,128.606C96.127,127.963 95.42,127.642 94.421,127.642C93.542,127.642 92.799,127.898 92.193,128.41C91.587,128.921 91.153,129.555 90.892,130.316L90.892,141.869L86.256,141.869L86.256,124.041L89.929,124.041L90.464,126.394L90.607,126.394C91.153,125.634 91.878,124.968 92.781,124.397C93.685,123.827 94.85,123.542 96.276,123.542C97.155,123.542 97.94,123.661 98.629,123.898C99.318,124.137 99.9,124.528 100.376,125.075C100.852,125.622 101.209,126.365 101.446,127.304C101.684,128.244 101.803,129.401 101.803,130.781L101.803,141.869L97.167,141.869Z" style="fill:rgb(250,166,57);fill-rule:nonzero;"/>
        <path d="M110.467,135.879C110.467,136.711 110.574,137.317 110.788,137.697C111.002,138.078 111.346,138.267 111.822,138.267C112.107,138.267 112.386,138.244 112.66,138.196C112.933,138.149 113.272,138.042 113.676,137.876L114.175,141.513C113.794,141.703 113.212,141.892 112.428,142.083C111.644,142.273 110.835,142.368 110.003,142.368C108.648,142.368 107.614,142.053 106.901,141.424C106.189,140.794 105.832,139.754 105.832,138.304L105.832,116.91L110.467,116.91L110.467,135.879Z" style="fill:rgb(250,166,57);fill-rule:nonzero;"/>
        <path d="M116.6,124.041L121.234,124.041L121.234,141.869L116.6,141.869L116.6,124.041ZM115.922,119.014C115.922,118.324 116.177,117.736 116.689,117.249C117.199,116.762 117.906,116.517 118.81,116.517C119.713,116.517 120.444,116.762 121.003,117.249C121.561,117.736 121.841,118.324 121.841,119.014C121.841,119.703 121.561,120.279 121.003,120.743C120.444,121.206 119.713,121.438 118.81,121.438C117.906,121.438 117.199,121.206 116.689,120.743C116.177,120.279 115.922,119.703 115.922,119.014Z" style="fill:rgb(250,166,57);fill-rule:nonzero;"/>
        <path d="M136.673,141.869L136.673,131.743C136.673,130.293 136.465,129.247 136.049,128.606C135.633,127.963 134.926,127.642 133.928,127.642C133.048,127.642 132.306,127.898 131.7,128.41C131.093,128.921 130.659,129.555 130.397,130.316L130.397,141.869L125.763,141.869L125.763,124.041L129.436,124.041L129.97,126.394L130.113,126.394C130.659,125.634 131.384,124.968 132.288,124.397C133.191,123.827 134.356,123.542 135.782,123.542C136.661,123.542 137.446,123.661 138.135,123.898C138.824,124.137 139.407,124.528 139.882,125.075C140.357,125.622 140.714,126.365 140.952,127.304C141.189,128.244 141.309,129.401 141.309,130.781L141.309,141.869L136.673,141.869Z" style="fill:rgb(250,166,57);fill-rule:nonzero;"/>
        <path d="M152.825,127.25C151.613,127.25 150.715,127.613 150.133,128.339C149.55,129.063 149.2,130.031 149.082,131.244L155.713,131.244C155.808,129.96 155.612,128.973 155.125,128.285C154.638,127.595 153.871,127.25 152.825,127.25ZM159.457,140.336C158.744,140.906 157.775,141.388 156.551,141.78C155.327,142.172 154.025,142.368 152.647,142.368C149.771,142.368 147.667,141.53 146.336,139.854C145.004,138.179 144.339,135.879 144.339,132.955C144.339,129.817 145.088,127.464 146.585,125.895C148.083,124.326 150.187,123.542 152.897,123.542C153.8,123.542 154.679,123.661 155.535,123.898C156.391,124.137 157.151,124.528 157.817,125.075C158.482,125.622 159.017,126.358 159.421,127.286C159.825,128.214 160.028,129.367 160.028,130.744C160.028,131.244 159.998,131.778 159.939,132.348C159.879,132.919 159.79,133.514 159.671,134.132L148.975,134.132C149.046,135.63 149.432,136.759 150.133,137.519C150.834,138.28 151.97,138.66 153.539,138.66C154.513,138.66 155.386,138.512 156.159,138.215C156.931,137.918 157.52,137.614 157.924,137.305L159.457,140.336Z" style="fill:rgb(250,166,57);fill-rule:nonzero;"/>
        <path d="M180.102,120.903C179.579,120.903 179.05,120.916 178.515,120.939C177.98,120.963 177.582,120.999 177.321,121.046L177.321,137.768C177.416,137.793 177.576,137.81 177.802,137.822C178.028,137.835 178.271,137.847 178.533,137.857C178.794,137.87 179.043,137.882 179.282,137.893C179.519,137.906 179.697,137.911 179.817,137.911C181.195,137.911 182.342,137.668 183.257,137.18C184.172,136.693 184.897,136.046 185.432,135.237C185.967,134.43 186.341,133.496 186.555,132.438C186.769,131.381 186.877,130.293 186.877,129.176C186.877,128.201 186.781,127.221 186.591,126.234C186.401,125.248 186.05,124.362 185.54,123.577C185.028,122.793 184.333,122.151 183.454,121.652C182.574,121.153 181.457,120.903 180.102,120.903ZM172.436,116.91C172.935,116.839 173.5,116.779 174.129,116.731C174.759,116.684 175.407,116.648 176.073,116.625C176.738,116.601 177.385,116.584 178.016,116.571C178.645,116.559 179.21,116.554 179.71,116.554C181.92,116.554 183.81,116.862 185.378,117.48C186.948,118.098 188.219,118.967 189.194,120.083C190.168,121.201 190.881,122.532 191.334,124.077C191.785,125.622 192.01,127.321 192.01,129.176C192.01,130.863 191.796,132.491 191.369,134.06C190.941,135.63 190.228,137.019 189.229,138.232C188.231,139.444 186.918,140.42 185.29,141.156C183.661,141.892 181.647,142.262 179.246,142.262C178.866,142.262 178.36,142.249 177.731,142.225C177.1,142.202 176.447,142.172 175.769,142.137C175.092,142.1 174.444,142.065 173.827,142.029C173.208,141.994 172.745,141.952 172.436,141.905L172.436,116.91Z" style="fill:rgb(250,166,57);fill-rule:nonzero;"/>
        <path d="M195.825,124.041L200.46,124.041L200.46,141.869L195.825,141.869L195.825,124.041ZM195.148,119.014C195.148,118.324 195.403,117.736 195.915,117.249C196.425,116.762 197.132,116.517 198.036,116.517C198.939,116.517 199.669,116.762 200.228,117.249C200.787,117.736 201.066,118.324 201.066,119.014C201.066,119.703 200.787,120.279 200.228,120.743C199.669,121.206 198.939,121.438 198.036,121.438C197.132,121.438 196.425,121.206 195.915,120.743C195.403,120.279 195.148,119.703 195.148,119.014Z" style="fill:rgb(250,166,57);fill-rule:nonzero;"/>
        <path d="M212.619,127.25C211.406,127.25 210.508,127.613 209.926,128.339C209.343,129.063 208.993,130.031 208.875,131.244L215.506,131.244C215.601,129.96 215.405,128.973 214.918,128.285C214.43,127.595 213.664,127.25 212.619,127.25ZM219.251,140.336C218.537,140.906 217.568,141.388 216.344,141.78C215.12,142.172 213.818,142.368 212.44,142.368C209.564,142.368 207.46,141.53 206.129,139.854C204.797,138.179 204.132,135.879 204.132,132.955C204.132,129.817 204.881,127.464 206.378,125.895C207.877,124.326 209.98,123.542 212.69,123.542C213.592,123.542 214.472,123.661 215.328,123.898C216.184,124.137 216.944,124.528 217.61,125.075C218.275,125.622 218.81,126.358 219.214,127.286C219.619,128.214 219.821,129.367 219.821,130.744C219.821,131.244 219.791,131.778 219.732,132.348C219.671,132.919 219.583,133.514 219.464,134.132L208.767,134.132C208.838,135.63 209.225,136.759 209.926,137.519C210.627,138.28 211.762,138.66 213.332,138.66C214.306,138.66 215.179,138.512 215.952,138.215C216.724,137.918 217.312,137.614 217.717,137.305L219.251,140.336Z" style="fill:rgb(250,166,57);fill-rule:nonzero;"/>
        <path d="M234.012,141.869L234.012,131.743C234.012,130.293 233.803,129.247 233.388,128.606C232.971,127.963 232.265,127.642 231.266,127.642C230.386,127.642 229.644,127.898 229.038,128.41C228.432,128.921 227.998,129.555 227.737,130.316L227.737,141.869L223.101,141.869L223.101,124.041L226.774,124.041L227.308,126.394L227.452,126.394C227.998,125.634 228.722,124.968 229.627,124.397C230.529,123.827 231.694,123.542 233.121,123.542C234,123.542 234.784,123.661 235.474,123.898C236.163,124.137 236.745,124.528 237.221,125.075C237.696,125.622 238.052,126.365 238.291,127.304C238.528,128.244 238.647,129.401 238.647,130.781L238.647,141.869L234.012,141.869Z" style="fill:rgb(250,166,57);fill-rule:nonzero;"/>
        <path d="M249.915,136.948C249.915,136.473 249.712,136.093 249.308,135.807C248.904,135.522 248.405,135.261 247.811,135.023C247.216,134.786 246.563,134.542 245.85,134.292C245.136,134.043 244.483,133.698 243.889,133.258C243.294,132.818 242.795,132.26 242.391,131.582C241.987,130.906 241.785,130.031 241.785,128.962C241.785,127.203 242.308,125.859 243.354,124.932C244.4,124.006 245.909,123.542 247.882,123.542C249.237,123.542 250.461,123.684 251.554,123.97C252.648,124.255 253.503,124.576 254.122,124.932L253.087,128.285C252.541,128.07 251.852,127.845 251.02,127.606C250.188,127.369 249.344,127.25 248.489,127.25C247.11,127.25 246.42,127.785 246.42,128.854C246.42,129.283 246.622,129.628 247.027,129.889C247.43,130.15 247.929,130.393 248.524,130.619C249.118,130.846 249.772,131.089 250.485,131.35C251.198,131.612 251.852,131.951 252.446,132.367C253.04,132.783 253.54,133.324 253.944,133.989C254.347,134.655 254.549,135.511 254.549,136.556C254.549,138.363 253.973,139.783 252.821,140.817C251.668,141.851 249.938,142.368 247.632,142.368C246.373,142.368 245.19,142.208 244.085,141.887C242.98,141.566 242.082,141.191 241.393,140.764L242.676,137.305C243.223,137.614 243.948,137.918 244.851,138.215C245.754,138.512 246.681,138.66 247.632,138.66C248.322,138.66 248.875,138.529 249.291,138.267C249.707,138.007 249.915,137.567 249.915,136.948Z" style="fill:rgb(250,166,57);fill-rule:nonzero;"/>
        <path d="M255.726,124.041L258.186,124.041L258.186,120.689L262.821,119.37L262.821,124.041L267.171,124.041L267.171,127.963L262.821,127.963L262.821,134.809C262.821,136.046 262.946,136.93 263.196,137.466C263.445,138.001 263.915,138.267 264.604,138.267C265.079,138.267 265.489,138.221 265.834,138.125C266.178,138.03 266.565,137.888 266.993,137.697L267.813,141.263C267.171,141.572 266.422,141.833 265.567,142.048C264.71,142.262 263.843,142.368 262.963,142.368C261.324,142.368 260.117,141.946 259.344,141.102C258.571,140.259 258.186,138.874 258.186,136.948L258.186,127.963L255.726,127.963L255.726,124.041Z" style="fill:rgb(250,166,57);fill-rule:nonzero;"/>
        <path d="M277.975,127.464C277.072,127.464 276.365,127.69 275.854,128.141C275.342,128.594 274.945,129.27 274.66,130.175L274.66,137.591C274.992,137.852 275.355,138.06 275.747,138.215C276.139,138.369 276.656,138.446 277.297,138.446C278.628,138.446 279.627,137.977 280.293,137.038C280.959,136.098 281.292,134.548 281.292,132.385C281.292,130.815 281.03,129.604 280.506,128.748C279.984,127.891 279.139,127.464 277.975,127.464ZM270.024,124.041L273.412,124.041L273.946,126.18L274.088,126.18C274.707,125.277 275.438,124.611 276.282,124.183C277.126,123.756 278.154,123.542 279.366,123.542C281.6,123.542 283.276,124.249 284.393,125.663C285.51,127.078 286.069,129.354 286.069,132.491C286.069,134.014 285.891,135.386 285.535,136.61C285.177,137.835 284.648,138.874 283.948,139.729C283.247,140.586 282.39,141.239 281.38,141.69C280.37,142.142 279.21,142.368 277.904,142.368C277.167,142.368 276.561,142.314 276.085,142.208C275.61,142.1 275.134,141.928 274.66,141.69L274.66,149L270.024,149L270.024,124.041Z" style="fill:rgb(250,166,57);fill-rule:nonzero;"/>
        <path d="M294.055,135.879C294.055,136.711 294.162,137.317 294.376,137.697C294.589,138.078 294.934,138.267 295.41,138.267C295.695,138.267 295.974,138.244 296.248,138.196C296.521,138.149 296.859,138.042 297.264,137.876L297.763,141.513C297.382,141.703 296.8,141.892 296.016,142.083C295.232,142.273 294.423,142.368 293.591,142.368C292.237,142.368 291.203,142.053 290.49,141.424C289.776,140.794 289.419,139.754 289.419,138.304L289.419,116.91L294.055,116.91L294.055,135.879Z" style="fill:rgb(250,166,57);fill-rule:nonzero;"/>
        <path d="M305.536,138.339C306.462,138.339 307.199,138.132 307.747,137.715C308.293,137.3 308.697,136.853 308.959,136.378L308.959,134.06C308.221,133.989 307.514,133.977 306.837,134.025C306.16,134.073 305.559,134.18 305.037,134.346C304.513,134.513 304.097,134.75 303.789,135.058C303.479,135.368 303.325,135.761 303.325,136.235C303.325,136.901 303.521,137.418 303.914,137.786C304.305,138.155 304.846,138.339 305.536,138.339ZM299.653,125.075C300.603,124.647 301.732,124.308 303.04,124.058C304.347,123.809 305.714,123.684 307.14,123.684C308.376,123.684 309.41,123.833 310.242,124.13C311.074,124.428 311.734,124.849 312.221,125.396C312.708,125.943 313.053,126.597 313.255,127.357C313.457,128.118 313.558,128.973 313.558,129.925C313.558,130.971 313.522,132.022 313.451,133.08C313.379,134.138 313.338,135.178 313.327,136.2C313.314,137.222 313.344,138.215 313.416,139.177C313.487,140.139 313.666,141.049 313.951,141.905L310.17,141.905L309.422,139.444L309.244,139.444C308.768,140.181 308.108,140.817 307.265,141.352C306.42,141.887 305.334,142.154 304.002,142.154C303.17,142.154 302.421,142.029 301.756,141.78C301.09,141.53 300.52,141.174 300.044,140.71C299.569,140.247 299.201,139.7 298.939,139.07C298.677,138.44 298.547,137.733 298.547,136.948C298.547,135.855 298.791,134.934 299.278,134.185C299.765,133.436 300.466,132.83 301.381,132.367C302.296,131.903 303.39,131.582 304.662,131.404C305.933,131.225 307.354,131.173 308.923,131.244C309.089,129.913 308.995,128.956 308.637,128.373C308.281,127.791 307.485,127.5 306.249,127.5C305.322,127.5 304.341,127.595 303.307,127.785C302.273,127.975 301.423,128.225 300.757,128.535L299.653,125.075Z" style="fill:rgb(250,166,57);fill-rule:nonzero;"/>
        <path d="M328.355,141.869L328.355,131.743C328.355,130.293 328.146,129.247 327.731,128.606C327.314,127.963 326.608,127.642 325.609,127.642C324.729,127.642 323.987,127.898 323.38,128.41C322.775,128.921 322.34,129.555 322.08,130.316L322.08,141.869L317.444,141.869L317.444,124.041L321.117,124.041L321.651,126.394L321.794,126.394C322.34,125.634 323.065,124.968 323.969,124.397C324.872,123.827 326.037,123.542 327.463,123.542C328.342,123.542 329.127,123.661 329.817,123.898C330.505,124.137 331.087,124.528 331.564,125.075C332.039,125.622 332.395,126.365 332.633,127.304C332.871,128.244 332.99,129.401 332.99,130.781L332.99,141.869L328.355,141.869Z" style="fill:rgb(250,166,57);fill-rule:nonzero;"/>
    </g>
</svg>
